Coordinates
version=1
nRows=37
nColumns=38
inDegrees=no

Units are S.I. units (second, meters, Newtons, ...)
If the header above contains a line with 'inDegrees', this indicates whether rotational values are in degrees (yes) or radians (no).

endheader
time	pelvis_tilt	pelvis_list	pelvis_rotation	pelvis_tx	pelvis_ty	pelvis_tz	hip_flexion_r	hip_adduction_r	hip_rotation_r	knee_angle_r	ankle_angle_r	subtalar_angle_r	mtp_angle_r	hip_flexion_l	hip_adduction_l	hip_rotation_l	knee_angle_l	ankle_angle_l	subtalar_angle_l	mtp_angle_l	lumbar_extension	lumbar_bending	lumbar_rotation	arm_flex_r	arm_add_r	arm_rot_r	elbow_flex_r	pro_sup_r	wrist_flex_r	wrist_dev_r	arm_flex_l	arm_add_l	arm_rot_l	elbow_flex_l	pro_sup_l	wrist_flex_l	wrist_dev_l
1.44	-0.248341	1.35419	-1.26929	0.656297	0.882967	0.956033	-0.119005	0.113224	-0.167322	0.439748	-0.157258	0	0	0.250875	-0.16541	-0.035927	1.37316	-0.306983	0	0	-0.444498	0.107976	0.0200953	-0.194252	-0.508715	0.530983	0.83979	0.845054	0	0	-0.174563	-0.247112	0.0333778	0.674698	1.43114	0	0
1.45	-0.221505	1.35478	-1.29937	0.656208	0.875144	0.956558	-0.133948	0.108238	-0.161174	0.431005	-0.153567	0	0	0.266067	-0.151333	-0.0338001	1.35385	-0.283311	0	0	-0.446727	0.100292	0.0183293	-0.185365	-0.51093	0.545264	0.838047	0.838195	0	0	-0.174874	-0.242698	0.0149087	0.674886	1.44521	0	0
1.46	-0.194192	1.35461	-1.32946	0.656216	0.86727	0.957026	-0.150247	0.103225	-0.154672	0.420871	-0.150546	0	0	0.278336	-0.141286	-0.0384482	1.3278	-0.262503	0	0	-0.449463	0.0929364	0.0165776	-0.177462	-0.513191	0.557657	0.837158	0.829908	0	0	-0.175114	-0.238923	-0.00164678	0.675761	1.45807	0	0
1.47	-0.177095	1.3554	-1.34829	0.656315	0.859292	0.957033	-0.165062	0.100284	-0.148873	0.410753	-0.147377	0	0	0.292545	-0.130966	-0.0378776	1.29895	-0.246511	0	0	-0.44997	0.0881455	0.0152997	-0.172004	-0.515527	0.566821	0.837791	0.822601	0	0	-0.175391	-0.235938	-0.0139052	0.67714	1.46805	0	0
1.48	-0.15816	1.3559	-1.36831	0.656567	0.851378	0.957074	-0.180398	0.0967961	-0.143239	0.399837	-0.144263	0	0	0.303911	-0.122766	-0.0421722	1.26172	-0.233943	0	0	-0.45104	0.0834898	0.0133717	-0.165633	-0.518149	0.577643	0.838012	0.812912	0	0	-0.174991	-0.231957	-0.0278897	0.677526	1.47984	0	0
1.49	-0.1428	1.35681	-1.38406	0.656921	0.843459	0.956952	-0.194602	0.0939498	-0.139346	0.389816	-0.141975	0	0	0.31462	-0.11611	-0.0471503	1.21862	-0.228269	0	0	-0.45135	0.0799319	0.0112851	-0.159738	-0.520716	0.58821	0.838287	0.803182	0	0	-0.174279	-0.227923	-0.0410315	0.67748	1.49047	0	0
1.5	-0.131505	1.35844	-1.39511	0.657354	0.835547	0.956617	-0.207758	0.0921046	-0.135931	0.37953	-0.14038	0	0	0.324897	-0.110999	-0.052755	1.17068	-0.228247	0	0	-0.450676	0.0774697	0.00899278	-0.154062	-0.523249	0.598719	0.838382	0.793816	0	0	-0.173243	-0.224192	-0.0529148	0.676765	1.50101	0	0
1.51	-0.124261	1.36101	-1.40142	0.657816	0.827608	0.956035	-0.219299	0.0912283	-0.133467	0.370041	-0.138656	0	0	0.334861	-0.107103	-0.0599443	1.11871	-0.232646	0	0	-0.448701	0.0759328	0.00673559	-0.148852	-0.52565	0.608911	0.838244	0.784744	0	0	-0.171706	-0.220691	-0.0635156	0.675188	1.51165	0	0
1.52	-0.117437	1.36374	-1.40616	0.658264	0.819867	0.955264	-0.230558	0.0910615	-0.130215	0.360123	-0.135644	0	0	0.343921	-0.103152	-0.0679239	1.06386	-0.243528	0	0	-0.436252	0.0747848	0.072002	-0.245616	-0.482101	0.418623	0.846434	0.906966	0	0	-0.0973047	-0.301971	0.265945	0.643869	1.26748	0	0
1.53	-0.113195	1.37403	-1.4061	0.659126	0.812496	0.954032	-0.231204	0.0898936	-0.126314	0.354981	-0.128321	0	0	0.361615	-0.0940985	-0.067988	1.0083	-0.256852	0	0	-0.431556	0.0739831	0.0374843	-0.194703	-0.506295	0.520189	0.838731	0.830928	0	0	-0.128026	-0.262876	0.105082	0.649118	1.39312	0	0
1.54	-0.113223	1.37808	-1.40624	0.659469	0.804653	0.952998	-0.238741	0.0899837	-0.121412	0.35077	-0.124329	0	0	0.367937	-0.092337	-0.081336	0.951246	-0.257195	0	0	-0.428673	0.072982	0.0356925	-0.188921	-0.50802	0.529327	0.837491	0.824678	0	0	-0.127436	-0.262361	0.102095	0.649151	1.39169	0	0
1.55	-0.1101	1.38167	-1.40907	0.659841	0.796579	0.951998	-0.247756	0.0896528	-0.11711	0.344814	-0.119753	0	0	0.370825	-0.0905537	-0.0980382	0.891169	-0.256174	0	0	-0.426202	0.0715999	0.0331446	-0.182472	-0.509338	0.540152	0.835043	0.817513	0	0	-0.127416	-0.257262	0.0849857	0.64723	1.4045	0	0
1.56	-0.104667	1.3846	-1.41282	0.660465	0.788449	0.950951	-0.257724	0.08912	-0.114749	0.338409	-0.115748	0	0	0.370564	-0.0867699	-0.112218	0.827513	-0.251582	0	0	-0.424441	0.0705265	0.0295996	-0.176677	-0.510459	0.549511	0.83278	0.810259	0	0	-0.127112	-0.252352	0.0690843	0.645277	1.41741	0	0
1.57	-0.0989306	1.38663	-1.41745	0.661095	0.78012	0.949872	-0.268423	0.0884504	-0.113385	0.333011	-0.111919	0	0	0.366356	-0.0824629	-0.125819	0.759208	-0.246166	0	0	-0.423496	0.0692902	0.0263725	-0.1716	-0.511546	0.557865	0.831094	0.803544	0	0	-0.127394	-0.247869	0.0541194	0.643681	1.43091	0	0
1.58	-0.0991347	1.38323	-1.42037	0.661363	0.770998	0.948938	-0.286378	0.0890437	-0.111183	0.325871	-0.109196	0	0	0.351923	-0.0861279	-0.156236	0.688296	-0.240568	0	0	-0.42686	0.068545	0.0268684	-0.169397	-0.514411	0.564583	0.833352	0.797762	0	0	-0.131212	-0.244192	0.040074	0.646042	1.44261	0	0
1.59	-0.0954424	1.38533	-1.42259	0.662216	0.762456	0.947645	-0.296501	0.0884883	-0.111258	0.321885	-0.105799	0	0	0.34243	-0.0791062	-0.162086	0.611218	-0.237678	0	0	-0.425874	0.0680018	0.023168	-0.165595	-0.516145	0.571766	0.833397	0.792028	0	0	-0.132845	-0.239989	0.0256279	0.646423	1.45431	0	0
1.6	-0.094499	1.38892	-1.42095	0.663282	0.753899	0.946127	-0.303798	0.0881974	-0.112971	0.320627	-0.10172	0	0	0.333055	-0.0703837	-0.158964	0.532846	-0.236194	0	0	-0.422933	0.0682115	0.0180642	-0.161627	-0.518282	0.579896	0.833454	0.785667	0	0	-0.135041	-0.234899	0.0085778	0.646734	1.46784	0	0
1.61	-0.0978083	1.39323	-1.415	0.664447	0.745215	0.944432	-0.309694	0.088585	-0.11455	0.320735	-0.0968575	0	0	0.323534	-0.0616664	-0.150787	0.456236	-0.234068	0	0	-0.418872	0.0691047	0.013027	-0.158358	-0.520945	0.587824	0.83418	0.780062	0	0	-0.137706	-0.230046	-0.00749633	0.647347	1.48072	0	0
1.62	-0.0978705	1.39605	-1.4118	0.665662	0.736613	0.94278	-0.316232	0.0885985	-0.11782	0.323211	-0.090088	0	0	0.310486	-0.0522208	-0.136595	0.38023	-0.233502	0	0	-0.407926	0.0692659	0.0680468	-0.247659	-0.477365	0.404013	0.8418	0.911427	0	0	-0.0748196	-0.294772	0.276645	0.622059	1.2696	0	0
1.63	-0.104762	1.40161	-1.40241	0.667115	0.727781	0.941021	-0.319114	0.0887965	-0.119382	0.3271	-0.0839892	0	0	0.298302	-0.0434174	-0.117885	0.305406	-0.237582	0	0	-0.412561	0.0711784	-0.00576355	-0.140085	-0.530325	0.623398	0.834961	0.759838	0	0	-0.14984	-0.209799	-0.0785796	0.653292	1.53666	0	0
1.64	-0.107115	1.40514	-1.39792	0.668384	0.718904	0.93941	-0.323785	0.0885854	-0.120931	0.332193	-0.0790283	0	0	0.283289	-0.0357005	-0.100622	0.236181	-0.243379	0	0	-0.408412	0.0715854	-0.0059559	-0.144624	-0.52998	0.615724	0.835968	0.765274	0	0	-0.14833	-0.211786	-0.0681139	0.651725	1.52793	0	0
1.65	-0.111283	1.40794	-1.39242	0.669544	0.70986	0.937937	-0.32839	0.0884787	-0.122061	0.339294	-0.0747336	0	0	0.26729	-0.0295836	-0.0839534	0.174053	-0.252832	0	0	-0.404601	0.0718669	-0.0052341	-0.14883	-0.528987	0.608728	0.835534	0.771316	0	0	-0.146966	-0.214727	-0.0556501	0.650005	1.5184	0	0
1.66	-0.117715	1.40994	-1.38561	0.670619	0.700623	0.936566	-0.332906	0.0882166	-0.123699	0.348702	-0.0714135	0	0	0.253934	-0.0259939	-0.0740126	0.129774	-0.259288	0	0	-0.401228	0.0721272	-0.00393351	-0.152429	-0.527723	0.602935	0.834174	0.776946	0	0	-0.146276	-0.217429	-0.0443398	0.648344	1.5103	0	0
1.67	-0.125013	1.41097	-1.37937	0.671646	0.691217	0.935323	-0.337447	0.0871538	-0.125626	0.360573	-0.0693853	0	0	0.246411	-0.025002	-0.0765271	0.113249	-0.260027	0	0	-0.398686	0.072332	-0.00159163	-0.155654	-0.527096	0.598553	0.832953	0.783081	0	0	-0.146434	-0.219133	-0.0352493	0.64726	1.50309	0	0
1.68	-0.129835	1.41099	-1.37619	0.672664	0.681619	0.934293	-0.343262	0.0854118	-0.127221	0.371593	-0.0693972	0	0	0.243361	-0.0248223	-0.086023	0.121416	-0.25911	0	0	-0.396967	0.0722452	0.0010635	-0.159093	-0.526468	0.594234	0.83155	0.788242	0	0	-0.147031	-0.21987	-0.0283771	0.646255	1.49681	0	0
1.69	-0.12873	1.41046	-1.37905	0.673737	0.671827	0.933466	-0.348845	0.0821763	-0.131894	0.385144	-0.0707815	0	0	0.242774	-0.0240269	-0.0986771	0.1468	-0.259525	0	0	-0.395603	0.0713325	0.00471649	-0.164659	-0.524648	0.585995	0.829668	0.797101	0	0	-0.146515	-0.221883	-0.0157532	0.644005	1.48655	0	0
1.7	-0.118918	1.40935	-1.38995	0.674906	0.661833	0.932923	-0.355663	0.0777293	-0.137623	0.397605	-0.0737633	0	0	0.236046	-0.0196319	-0.0980268	0.164055	-0.264194	0	0	-0.394635	0.0691209	0.00724884	-0.169772	-0.52179	0.577825	0.826044	0.803884	0	0	-0.145972	-0.223706	-0.00410326	0.640782	1.4779	0	0
1.71	-0.088251	1.40698	-1.42259	0.676004	0.65187	0.93306	-0.364119	0.0695844	-0.141727	0.409685	-0.0793217	0	0	0.182966	-0.00151279	-0.0130821	0.0730573	-0.313789	0	0	-0.395323	0.0628721	0.014682	-0.180162	-0.513672	0.55616	0.819264	0.821272	0	0	-0.139529	-0.230919	0.0287986	0.633614	1.45362	0	0
1.72	-0.0646368	1.40482	-1.44927	0.677129	0.641597	0.933108	-0.371823	0.0623151	-0.142815	0.422611	-0.0846035	0	0	0.153213	0.00821365	0.024671	0.0338149	-0.332288	0	0	-0.395373	0.0575945	0.0142685	-0.175252	-0.51562	0.573292	0.81337	0.807507	0	0	-0.142623	-0.228814	0.0244536	0.631197	1.4564	0	0
1.73	-0.0393702	1.4025	-1.47749	0.678228	0.631159	0.9333	-0.379484	0.0552003	-0.141159	0.435301	-0.0922459	0	0	0.137695	0.0162596	0.0362014	0.024026	-0.360019	0	0	-0.389427	0.051543	0.0585776	-0.243133	-0.477713	0.428978	0.811189	0.91912	0	0	-0.100185	-0.276645	0.236091	0.612101	1.29748	0	0
1.74	-0.0203644	1.40279	-1.49877	0.679512	0.620434	0.933539	-0.384586	0.0492295	-0.135704	0.446073	-0.105084	0	0	0.131054	0.0225803	0.0385642	0.0282288	-0.383875	0	0	-0.398788	0.0463379	-0.00919138	-0.150155	-0.513475	0.608104	0.796551	0.813695	0	0	-0.170309	-0.186591	-0.127891	0.641607	1.5708	0	0
1.75	6.85825e-05	1.40228	-1.52004	0.680928	0.609699	0.933861	-0.388998	0.0434496	-0.131272	0.45961	-0.116388	0	0	0.126446	0.0286041	0.0374411	0.0409013	-0.39609	0	0	-0.395865	0.0416461	-0.00871761	-0.155633	-0.509656	0.60006	0.791872	0.820949	0	0	-0.17333	-0.18556	-0.127923	0.640529	1.5708	0	0
1.76	0.0162116	1.40327	-1.53766	0.682489	0.598729	0.93406	-0.389718	0.0375139	-0.126628	0.477126	-0.128326	0	0	0.124368	0.0336256	0.033372	0.0573651	-0.402585	0	0	-0.390401	0.0377825	-0.00754046	-0.16207	-0.506994	0.592923	0.78792	0.828714	0	0	-0.176944	-0.183994	-0.127714	0.638667	1.5708	0	0
1.77	0.0272517	1.40628	-1.55167	0.684155	0.587441	0.934095	-0.386136	0.0312474	-0.120482	0.49854	-0.140921	0	0	0.125137	0.0370813	0.0266764	0.0770722	-0.403202	0	0	-0.38195	0.0347121	-0.00511478	-0.169327	-0.505616	0.586886	0.784414	0.837252	0	0	-0.181572	-0.181768	-0.127521	0.636239	1.5708	0	0
1.78	0.0361965	1.40956	-1.56273	0.685952	0.576132	0.934215	-0.380228	0.0250375	-0.115105	0.522998	-0.157547	0	0	0.127872	0.0395982	0.021363	0.101908	-0.399511	0	0	-0.373026	0.0324715	-0.00309383	-0.177229	-0.504169	0.579491	0.781114	0.847442	0	0	-0.186314	-0.179878	-0.125904	0.634081	1.5708	0	0
1.79	0.0466587	1.41148	-1.57433	0.687798	0.564942	0.934681	-0.373664	0.0184567	-0.110211	0.549831	-0.178452	0	0	0.129326	0.0422288	0.0177937	0.128548	-0.395517	0	0	-0.365843	0.0302275	-0.00207769	-0.184734	-0.502378	0.570555	0.777899	0.855896	0	0	-0.191017	-0.178776	-0.122915	0.63283	1.5708	0	0
1.8	0.0605671	1.41199	-1.58939	0.689608	0.55383	0.935553	-0.366392	0.0106666	-0.105001	0.579165	-0.198262	0	0	0.126467	0.0455434	0.0150434	0.149478	-0.396959	0	0	-0.359199	0.0275548	-0.00109372	-0.185379	-0.507449	0.587194	0.775392	0.832358	0	0	-0.194669	-0.178695	-0.11691	0.629505	1.5708	0	0
